<?xml version="1.0" encoding="UTF-8"?>
<svg xmlns="http://www.w3.org/2000/svg" width="24" height="24" viewBox="0 0 24 24">
  <g id="18-&amp;-24-Pixel-Icons" fill="none" fill-rule="evenodd">
    <g id="icons" transform="translate(-336)">
      <g id="calendar-24" transform="translate(336)">
        <rect id="grid-24" width="24" height="24"></rect>
        <path id="icon" fill="#6A7070" d="M24 7L24 2.5C24 2.2 23.8 2 23.5 2L20 2 20 .5C20 .2 19.8 0 19.5 0L16.5 0C16.2 0 16 .2 16 .5L16 2 8 2 8 .5C8 .2 7.8 0 7.5 0L4.5 0C4.2 0 4 .2 4 .5L4 2 .5 2C.2 2 0 2.2 0 2.5L0 7 24 7 24 7zM17 1L19 1 19 4 17 4 17 1 17 1zM5 1L7 1 7 4 5 4 5 1 5 1zM0 8L0 23.5C0 23.8.2 24 .5 24L23.5 24C23.8 24 24 23.8 24 23.5L24 8 0 8 0 8zM12 19.5C12 19.8 11.8 20 11.5 20L6.5 20C6.2 20 6 19.8 6 19.5L6 18.5C6 18.2 6.2 18 6.5 18 6.8 18 7 18.2 7 18.5L7 19 11 19 11 16 8 16C7.7 16 7.5 15.8 7.5 15.5 7.5 15.2 7.7 15 8 15L11 15 11 12 7 12 7 12.5C7 12.8 6.8 13 6.5 13 6.2 13 6 12.8 6 12.5L6 11.5C6 11.2 6.2 11 6.5 11L11.5 11C11.8 11 12 11.2 12 11.5L12 19.5 12 19.5zM18.5 20L14.5 20C14.2 20 14 19.8 14 19.5 14 19.2 14.2 19 14.5 19L16 19 16 12.7 14.9 13.8C14.7 14 14.4 14 14.2 13.8 14 13.6 14 13.3 14.2 13.1L16.2 11.1C16.3 11 16.6 10.9 16.7 11 16.9 11.1 17 11.3 17 11.5L17 19 18.5 19C18.8 19 19 19.2 19 19.5 19 19.8 18.8 20 18.5 20L18.5 20z"></path>
      </g>
    </g>
  </g>
</svg>
